<svg width="27" height="32" viewBox="0 0 27 32" fill="none" xmlns="http://www.w3.org/2000/svg">
<g filter="url(#filter0_d_56_2)">
<path d="M22.5 19.163L14.21 23.4768L14.2005 13.2168L17.6755 11.4293V18.8348L22.4815 16.3723L22.5 19.163Z" fill="#B39DDB"/>
<path d="M10.4233 22.401L12.5673 23.4767V13.1857L9.3105 11.6132L8.279 16.524L7.239 10.6015L4 9.01923V19.32L6.135 20.4145V14.2065L7.30225 20.9107L9.202 21.8765L10.4233 16.3032V22.401Z" fill="#FBC02D"/>
<path d="M12.0592 1.52326L9.6155 3.71201C9.6155 3.71201 14.3835 6.19476 14.963 6.48826C15.5422 6.78151 16.3667 7.34576 15.4755 8.18101C14.5842 9.01626 13.6037 8.90351 12.9355 8.56476C11.0634 7.61034 9.19195 6.65484 7.321 5.69826L4.8035 7.86501C4.8035 7.86501 9.6605 10.37 10.4625 10.799C11.2645 11.2278 14.25 12.2885 17.08 10.054C19.9095 7.81976 19.5085 7.00701 19.5085 6.84901C19.5085 6.69101 19.4417 5.85601 18.9515 5.33701C18.4615 4.81776 17.0355 4.07301 16.434 3.75701C15.8325 3.44101 12.0597 1.52301 12.0597 1.52301L12.0592 1.52326Z" fill="#F06292"/>
</g>
<defs>
<filter id="filter0_d_56_2" x="-3.25" y="0" width="33" height="33" filterUnits="userSpaceOnUse" color-interpolation-filters="sRGB">
<feFlood flood-opacity="0" result="BackgroundImageFix"/>
<feColorMatrix in="SourceAlpha" type="matrix" values="0 0 0 0 0 0 0 0 0 0 0 0 0 0 0 0 0 0 127 0" result="hardAlpha"/>
<feOffset dy="4"/>
<feGaussianBlur stdDeviation="2"/>
<feComposite in2="hardAlpha" operator="out"/>
<feColorMatrix type="matrix" values="0 0 0 0 0 0 0 0 0 0 0 0 0 0 0 0 0 0 0.25 0"/>
<feBlend mode="normal" in2="BackgroundImageFix" result="effect1_dropShadow_56_2"/>
<feBlend mode="normal" in="SourceGraphic" in2="effect1_dropShadow_56_2" result="shape"/>
</filter>
</defs>
</svg>
