<svg xmlns="http://www.w3.org/2000/svg" xmlns:xlink="http://www.w3.org/1999/xlink" version="1.1" x="0px" y="0px" viewBox="0 0 60 75" style="enable-background:new 0 0 60 60;" xml:space="preserve"><circle cx="31.34" cy="23" r="3"/><path d="M10.51,29.62c-0.4,0.57-0.53,1.29-0.36,1.97c0.17,0.68,0.63,1.24,1.26,1.56l0.84,0.42l0.16,0.75l-0.47,1.38  c-0.14,0.41,0,0.86,0.34,1.12l0.42,0.31l-0.27,0.22c-0.24,0.19-0.37,0.46-0.38,0.76s0.12,0.59,0.34,0.78l1.11,0.95v2.04  c0,2.08,1.55,3.8,3.6,4.01c1.24,0.13,2.43,0.08,3.6,0.04c0.31-0.01,0.63-0.02,0.94-0.03c1.69-0.02,3.27,0.95,3.91,2.48  c0.57,1.38,0.85,2.93,0.82,4.6c-0.01,0.31,0.13,0.6,0.37,0.79c0.18,0.15,0.4,0.23,0.63,0.23c0.07,0,0.15-0.01,0.22-0.02l16.13-3.6  c0.3-0.07,0.55-0.27,0.69-0.55c0.13-0.28,0.13-0.6-0.01-0.87c-1.51-3.05-2.01-5.73-1.52-8.21c0.01-0.05,0.02-0.11,0.02-0.17  c0.04-2.12,1.3-4.84,3.96-8.56c1.88-2.63,2.93-5.49,3.05-8.29c0.14-3.25-0.79-6.45-2.76-9.54C42.74,7.51,35.13,4.78,25.71,6.5  c-6.67,1.22-11.7,6.31-12.51,12.68l-0.02,0.15c-0.01,0.06-0.01,0.11,0,0.17l0.34,5.2c0.02,0.36-0.08,0.72-0.28,1.01L10.51,29.62z   M32.34,35.66c0,0.55-0.45,1-1,1s-1-0.45-1-1v-2.13c0-0.55,0.45-1,1-1s1,0.45,1,1V35.66z M39.95,16.87l1.84-1.06  c0.48-0.28,1.09-0.11,1.37,0.37c0.28,0.48,0.11,1.09-0.37,1.37l-1.84,1.06c-0.16,0.09-0.33,0.13-0.5,0.13  c-0.35,0-0.68-0.18-0.87-0.5C39.31,17.76,39.47,17.15,39.95,16.87z M39.59,27.76c0.28-0.48,0.89-0.64,1.37-0.37l1.84,1.06  c0.48,0.28,0.64,0.89,0.37,1.37c-0.19,0.32-0.52,0.5-0.87,0.5c-0.17,0-0.34-0.04-0.5-0.13l-1.84-1.06  C39.47,28.85,39.31,28.24,39.59,27.76z M30.34,10.34c0-0.55,0.45-1,1-1s1,0.45,1,1v2.13c0,0.55-0.45,1-1,1s-1-0.45-1-1V10.34z   M23.34,22.11c0-0.38,0.22-0.73,0.56-0.9l1.11-0.53l0.21-0.51l-0.4-1.16c-0.13-0.37-0.04-0.77,0.23-1.04l1.26-1.25  c0.27-0.28,0.67-0.37,1.03-0.24l1.17,0.4l0.5-0.21l0.54-1.11c0.17-0.34,0.52-0.56,0.9-0.56h1.77c0.39,0,0.74,0.22,0.9,0.56  l0.54,1.11l0.51,0.21l1.16-0.4c0.36-0.13,0.77-0.04,1.04,0.24l1.25,1.25c0.27,0.27,0.36,0.67,0.24,1.04l-0.41,1.16l0.21,0.51  l1.11,0.53c0.35,0.17,0.57,0.52,0.57,0.9v1.78c0,0.38-0.22,0.73-0.57,0.9l-1.11,0.53l-0.21,0.51l0.41,1.16  c0.12,0.37,0.03,0.77-0.24,1.04l-1.25,1.25c-0.27,0.28-0.68,0.37-1.04,0.24l-1.16-0.4l-0.51,0.21l-0.54,1.11  c-0.16,0.34-0.51,0.56-0.9,0.56h-1.77c-0.38,0-0.73-0.22-0.9-0.56l-0.59-1.13l-0.45-0.19l-1.17,0.4c-0.36,0.13-0.76,0.04-1.03-0.24  l-1.26-1.25c-0.27-0.27-0.36-0.67-0.23-1.04l0.4-1.16l-0.21-0.51l-1.11-0.53c-0.34-0.17-0.56-0.52-0.56-0.9V22.11z M19.51,16.17  c0.28-0.48,0.89-0.64,1.37-0.37l1.84,1.06c0.48,0.28,0.64,0.89,0.37,1.37c-0.19,0.32-0.52,0.5-0.87,0.5c-0.17,0-0.34-0.04-0.5-0.13  l-1.84-1.06C19.4,17.26,19.23,16.65,19.51,16.17z M19.87,28.46l1.84-1.06c0.48-0.28,1.09-0.11,1.37,0.37  c0.28,0.48,0.11,1.09-0.37,1.37l-1.84,1.06c-0.16,0.09-0.33,0.13-0.5,0.13c-0.35,0-0.68-0.18-0.87-0.5  C19.23,29.35,19.4,28.74,19.87,28.46z"/><text x="0" y="75" fill="#000000" font-size="5px" font-weight="bold" font-family="'Helvetica Neue', Helvetica, Arial-Unicode, Arial, Sans-serif">Created by Vectorstall</text><text x="0" y="80" fill="#000000" font-size="5px" font-weight="bold" font-family="'Helvetica Neue', Helvetica, Arial-Unicode, Arial, Sans-serif">from the Noun Project</text></svg>