<svg width="20" height="24" viewBox="0 0 20 24" fill="none" xmlns="http://www.w3.org/2000/svg">
<path d="M14.9965 3.42575e-06C14.3743 0.0150146 13.769 0.205685 13.2505 0.550003C12.1548 1.18042 11.2154 2.05003 10.5025 3.094C10.0557 3.13905 9.6054 3.13905 9.15853 3.094C8.83853 3.094 8.37053 3.303 8.58453 4.057C8.79953 4.81 9.38253 5.554 9.33453 5.98C9.28255 6.24505 9.25975 6.51499 9.26653 6.785C8.96853 7.257 7.57653 9.528 7.15353 11.334C7.15353 11.334 7.94853 3.367 5.50853 2.004C3.06853 0.641003 1.10453 1.727 0.448533 3.524C-0.954467 7.356 1.12353 13.349 4.05353 18.185C6.98353 23.021 9.76653 23.894 11.7395 23.98C15.0375 24.125 14.0775 23.41 15.2625 23.34C16.4475 23.27 16.2745 23.98 18.2465 23.705C19.6845 23.497 19.9315 22.535 19.3875 22.102C18.8435 21.669 19.0245 20.618 19.5435 18.382C20.0625 16.147 19.3195 12.212 18.7975 11.199C18.2755 10.186 18.3335 9.669 18.8875 8.672C19.3479 7.90757 19.6378 7.05277 19.7375 6.166C19.7831 5.81983 19.7831 5.46918 19.7375 5.123V5.05C19.7375 5.05 19.3935 6.425 18.7175 6.919C18.6092 6.99818 18.5026 7.07953 18.3975 7.163C18.4645 6.906 18.7175 5.823 18.3565 5.239C18.3565 5.239 18.2055 7.727 16.8795 7.859C15.5535 7.989 13.6775 6.634 13.1495 6.089C13.1875 6.299 13.2175 6.357 13.2585 6.519C13.3025 6.66967 13.3545 6.818 13.4145 6.964C13.6005 7.564 13.7985 8.481 13.5005 9.056C13.0365 9.966 12.0255 11.369 12.1275 13.37C12.139 14.5897 12.4129 15.7926 12.9305 16.897C13.3205 17.885 13.4235 18.797 13.3465 18.954C13.2695 19.111 13.3735 19.915 11.5315 18.536C9.69153 17.156 9.19353 15.729 9.19353 15.729C8.90353 16.5272 8.78926 17.3786 8.85853 18.225C8.97659 19.4384 9.23739 20.6337 9.63553 21.786C9.63553 21.786 7.22053 19.83 7.09253 15.91C6.97053 12.308 9.07853 8.141 9.41453 7.5C9.48005 7.64415 9.57702 7.77178 9.69832 7.87353C9.81963 7.97528 9.96219 8.04857 10.1155 8.088C10.1155 8.088 9.17653 7.57 9.86153 5.562C10.5475 3.555 11.9285 1.768 13.3245 0.982003C13.9002 0.623787 14.5574 0.417773 15.2346 0.383313C15.9117 0.348853 16.5865 0.487078 17.1955 0.785003C16.6532 0.321737 15.9745 0.0479036 15.2625 0.00500343C15.174 -0.000595938 15.0852 -0.00226425 14.9965 3.42575e-06ZM13.6065 1.865C13.5321 1.86542 13.458 1.87414 13.3855 1.891C13.0335 1.968 12.8455 2.381 13.0885 2.891C13.1382 3.0046 13.1608 3.12818 13.1545 3.252C13.1508 3.37611 13.1183 3.49765 13.0595 3.607C13.3341 3.3339 13.6395 3.09362 13.9695 2.891C14.3513 2.68516 14.7614 2.53689 15.1865 2.451C14.9295 2.44419 14.679 2.36819 14.4615 2.231C14.3274 2.08578 14.1579 1.97792 13.9695 1.918C13.8524 1.88014 13.7296 1.86223 13.6065 1.865ZM18.4765 2.039C17.9735 2.039 17.3045 2.153 16.7895 2.355C16.4758 2.44384 16.2053 2.644 16.0285 2.918C15.7495 3.56 17.4455 4.623 18.1285 4.424C18.4485 4.331 18.9235 3.635 19.1315 3.029C19.2725 2.596 19.2915 2.211 19.0315 2.111C18.8521 2.05662 18.6639 2.03229 18.4765 2.039ZM18.7025 7.369C18.7025 7.369 18.3565 8.55 18.1125 9.086C17.9025 9.561 17.8345 9.522 17.6775 9.576C17.7534 9.3596 17.8123 9.13759 17.8535 8.912C17.9465 8.521 17.8535 8.418 17.8535 8.418C17.7701 8.86804 17.6137 9.30142 17.3905 9.701C17.1874 9.78423 16.9625 9.79829 16.7505 9.741C16.4905 9.634 16.4455 8.414 16.4455 8.344C16.8734 8.38906 17.3057 8.32293 17.7005 8.152C18.0964 7.98173 18.4416 7.71201 18.7025 7.369Z" fill="black"/>
</svg>
