<svg width="16" height="16" viewBox="0 0 16 16" fill="none" xmlns="http://www.w3.org/2000/svg">
<g clip-path="url(#clip0_55_2)">
<path d="M10.7485 9.50935C10.8275 8.8516 10.8039 8.7551 11.2937 8.8616L11.4181 8.8726C11.7949 8.88972 12.2877 8.81197 12.5771 8.67747C13.2004 8.38835 13.5699 7.90535 12.9554 8.03222C11.5535 8.32135 11.4571 7.84685 11.4571 7.84685C12.9375 5.65047 13.5564 2.86247 13.0222 2.17997C11.5655 0.318471 9.04375 1.19872 9.0015 1.2216L8.988 1.22422C8.711 1.1666 8.40112 1.13235 8.05287 1.12672C7.4185 1.11635 6.93712 1.2931 6.572 1.56997C6.572 1.56997 2.07337 -0.283404 2.28262 3.90072C2.32712 4.79085 3.5585 10.636 5.02712 8.87047C5.56387 8.22497 6.08262 7.6791 6.08262 7.6791C6.34025 7.85022 6.64862 7.93747 6.97212 7.9061L6.99712 7.88485C6.98937 7.96497 6.99275 8.04335 7.00725 8.1361C6.62887 8.55897 6.74012 8.63322 5.98362 8.78885C5.21837 8.9466 5.668 9.22735 5.96137 9.30072C6.31737 9.38985 7.1405 9.51597 7.69687 8.7371L7.67475 8.82597C7.82325 8.94472 7.81312 9.67935 7.83412 10.2042C7.85512 10.7291 7.89037 11.2188 7.99737 11.5078C8.10437 11.7966 8.23062 12.5405 9.22475 12.3275C10.0555 12.1492 10.6906 11.893 10.7485 9.50935Z" fill="black"/>
<path d="M8.90101 12.8463C8.46126 12.8463 8.17501 12.6763 8.00101 12.512C7.73851 12.2644 7.63438 11.9453 7.57226 11.7546L7.54538 11.675C7.42013 11.3369 7.37776 10.8501 7.35263 10.2234C7.34893 10.1254 7.3458 10.0274 7.34326 9.92939C7.34113 9.85426 7.33851 9.76001 7.33476 9.66114C7.17631 9.73663 7.00817 9.7898 6.83513 9.81914C6.52513 9.87214 6.19188 9.85489 5.84438 9.76801C5.59926 9.70676 5.34451 9.57976 5.19938 9.38351C4.77626 9.75414 4.37263 9.70376 4.15276 9.63051C3.76488 9.50114 3.41776 9.13776 3.09138 8.51926C2.85901 8.07889 2.63413 7.50489 2.42301 6.81351C2.05551 5.60939 1.82201 4.34114 1.80126 3.92489C1.73601 2.62151 2.08676 1.68951 2.84376 1.15489C4.03813 0.311263 5.84751 0.807263 6.50713 1.03251C6.95026 0.765388 7.47163 0.635263 8.06088 0.644763C8.37738 0.649888 8.67863 0.677763 8.95851 0.727513C9.25038 0.635763 9.82713 0.504013 10.4873 0.512138C11.7035 0.526638 12.7114 1.00064 13.4018 1.88289C13.8944 2.51239 13.6509 3.83414 13.4618 4.56614C13.1959 5.59551 12.7298 6.69064 12.1573 7.64389C12.3128 7.64501 12.5379 7.62626 12.8581 7.56026C13.4899 7.42976 13.6745 7.76851 13.7246 7.92014C13.9255 8.52851 13.0524 8.98814 12.78 9.11451C12.431 9.27664 11.8621 9.37526 11.3961 9.35389L11.3758 9.35251L11.2534 9.34176L11.2413 9.44376L11.2296 9.54364C11.1984 10.7516 11.0258 11.5166 10.6706 12.0223C10.2985 12.5521 9.78113 12.7008 9.32551 12.7984C9.18612 12.8295 9.04381 12.8455 8.90101 12.8463ZM7.97576 8.44951C8.25963 8.67664 8.28451 9.10401 8.30663 9.90276C8.30938 10.0024 8.31201 10.0968 8.31551 10.1849C8.32626 10.4516 8.35138 11.0764 8.44913 11.3404C8.46301 11.3776 8.47538 11.4156 8.48838 11.4556C8.59738 11.7896 8.65213 11.957 9.12351 11.856C9.51938 11.7713 9.72276 11.6951 9.88201 11.4684C10.1135 11.1386 10.243 10.4758 10.2668 9.49751L10.7483 9.50926L10.27 9.45189L10.284 9.33251C10.3299 8.93901 10.3629 8.65451 10.626 8.46651C10.837 8.31564 11.0776 8.33026 11.2693 8.36476C11.0588 8.20589 11.0005 8.01914 10.985 7.94264L10.9449 7.74489L11.0576 7.57739C11.7076 6.61289 12.2438 5.42751 12.5285 4.32514C12.821 3.19239 12.7318 2.59076 12.6426 2.47701C11.4619 0.968138 9.41401 1.59101 9.20026 1.66189L9.16401 1.68139L8.98276 1.71526L8.88988 1.69601C8.63401 1.64289 8.34976 1.61351 8.04488 1.60851C7.56601 1.60051 7.17976 1.71364 6.86301 1.95401L6.64326 2.12064L6.38813 2.01551C5.84338 1.79276 4.24288 1.34489 3.39838 1.94301C2.92963 2.27501 2.71613 2.92564 2.76363 3.87676C2.77926 4.19076 2.99276 5.37939 3.34451 6.53239C3.83088 8.12564 4.27288 8.65476 4.45738 8.71639C4.48951 8.72726 4.57313 8.66226 4.65626 8.56251C5.19701 7.91214 5.71126 7.37001 5.73288 7.34714L6.01176 7.05376L6.34888 7.27776C6.48476 7.36814 6.63463 7.41926 6.78863 7.42889L7.59276 6.74314L7.47626 7.93189C7.47363 7.95864 7.47238 7.99489 7.48288 8.06239L7.51788 8.28776L7.36626 8.45751L7.34876 8.47714L7.79051 8.68114L7.97576 8.44951Z" fill="black"/>
<path d="M12.9558 8.03222C11.5538 8.32135 11.4574 7.84672 11.4574 7.84672C12.9376 5.65035 13.5564 2.86222 13.0224 2.17985C11.5655 0.318346 9.04375 1.19872 9.00163 1.2216L8.988 1.22397C8.711 1.1666 8.40113 1.13235 8.05275 1.12672C7.41838 1.11635 6.93713 1.29297 6.572 1.56985C6.572 1.56985 2.07325 -0.283404 2.2825 3.90072C2.327 4.79085 3.55838 10.636 5.027 8.87047C5.56375 8.22497 6.08238 7.6791 6.08238 7.6791C6.34 7.85022 6.64838 7.93747 6.97175 7.9061L6.99688 7.88485C6.98913 7.96497 6.99263 8.04335 7.00688 8.1361C6.62863 8.55897 6.73963 8.63322 5.98338 8.78885C5.218 8.9466 5.66763 9.22735 5.96125 9.30072C6.31713 9.38985 7.14038 9.51597 7.69663 8.7371L7.67438 8.82597C7.82263 8.94472 7.92675 9.59835 7.90925 10.1908C7.89175 10.7833 7.88013 11.1901 7.997 11.5078C8.11388 11.8256 8.23025 12.5405 9.2245 12.3275C10.0553 12.1493 10.4858 11.688 10.5458 10.9185C10.5883 10.3713 10.6844 10.4522 10.6905 9.96297L10.7678 9.73135C10.8566 8.9896 10.7819 8.75035 11.2938 8.86172L11.4181 8.8726C11.7949 8.88985 12.2879 8.81197 12.5773 8.67747C13.2005 8.38822 13.5701 7.90535 12.9558 8.03222Z" fill="#336791"/>
<path d="M8.95126 12.5493C8.12239 12.5494 7.85989 11.893 7.75239 11.6247C7.59526 11.2314 7.56126 9.7049 7.59626 8.45303C7.5986 8.41123 7.61714 8.372 7.64796 8.34366C7.67877 8.31533 7.71942 8.30013 7.76126 8.3013C7.80311 8.30248 7.84285 8.31993 7.87202 8.34994C7.9012 8.37996 7.91752 8.42017 7.91751 8.46203C7.87714 9.9059 7.93451 11.2143 8.05076 11.5053C8.23239 11.9593 8.50776 12.3564 9.28664 12.1897C10.026 12.031 10.3029 11.7507 10.4261 11.0359C10.5209 10.4873 10.7079 8.92665 10.7309 8.61865C10.7341 8.57617 10.754 8.53668 10.7862 8.50888C10.8185 8.48108 10.8605 8.46724 10.903 8.4704C10.9455 8.47357 10.985 8.49348 11.0128 8.52576C11.0406 8.55804 11.0544 8.60005 11.0513 8.64253C11.0273 8.96303 10.841 10.5208 10.7426 11.0905C10.597 11.9349 10.2206 12.3179 9.35389 12.5038C9.22164 12.533 9.08669 12.5482 8.95126 12.5493ZM4.45739 9.34365C4.38494 9.34367 4.31299 9.3318 4.24439 9.30853C3.70601 9.1289 3.19326 8.25215 2.72026 6.7024C2.36026 5.52265 2.13214 4.2914 2.11214 3.89128C2.05276 2.70503 2.35839 1.86565 3.02026 1.39665C4.32976 0.46878 6.53276 1.3524 6.62589 1.3904C6.66497 1.40676 6.696 1.43789 6.71224 1.47702C6.72847 1.51615 6.72859 1.56011 6.71257 1.59933C6.69655 1.63855 6.66568 1.66985 6.62669 1.68641C6.5877 1.70298 6.54374 1.70347 6.50439 1.68778V1.6879C6.48314 1.67915 4.37064 0.832905 3.20539 1.65928C2.63939 2.06065 2.37951 2.80615 2.43289 3.8754C2.44976 4.2124 2.66289 5.41428 3.02751 6.60878C3.44976 7.99215 3.93039 8.86528 4.34601 9.00378C4.41114 9.02565 4.60964 9.09178 4.89364 8.75053C5.42764 8.10803 5.91826 7.59528 5.92314 7.59015C5.95301 7.56121 5.99294 7.54497 6.03454 7.54485C6.07614 7.54473 6.11616 7.56074 6.1462 7.58952C6.17624 7.6183 6.19395 7.6576 6.19562 7.69916C6.19729 7.74072 6.18278 7.78132 6.15514 7.8124C6.15026 7.8174 5.66714 8.32253 5.14064 8.9559C4.89126 9.25565 4.65214 9.34365 4.45739 9.34365ZM11.4474 7.99003C11.4182 7.99007 11.3896 7.98216 11.3646 7.96716C11.3396 7.95215 11.3191 7.93061 11.3054 7.90485C11.2917 7.87909 11.2853 7.85009 11.2869 7.82096C11.2884 7.79183 11.2979 7.76368 11.3143 7.73953C12.8106 5.51903 13.3359 2.83615 12.886 2.2614C12.3198 1.5379 11.5201 1.1599 10.5095 1.13828C9.76114 1.12203 9.16626 1.31315 9.06914 1.34653L9.04476 1.3564C8.94701 1.38715 8.87201 1.33353 8.84376 1.2709C8.82767 1.23502 8.82524 1.1945 8.83693 1.15695C8.84863 1.1194 8.87364 1.08742 8.90726 1.06703L8.95051 1.04928L8.94839 1.0499L8.95064 1.04915C9.11576 0.98878 9.71964 0.80753 10.4678 0.816155C11.5861 0.827905 12.5099 1.25928 13.1391 2.06328C13.4369 2.44378 13.4375 3.3204 13.141 4.46828C12.8388 5.63853 12.27 6.8964 11.5808 7.91915C11.5661 7.94104 11.5462 7.95896 11.523 7.97132C11.4997 7.98368 11.4737 7.99011 11.4474 7.99003ZM11.5238 9.0179C11.2683 9.0179 11.0393 8.98203 10.9021 8.89978C10.7611 8.8154 10.7343 8.70053 10.7308 8.63965C10.6923 7.96415 11.065 7.84653 11.2551 7.7929C11.2286 7.7529 11.1909 7.70578 11.152 7.65715C11.0411 7.51865 10.8894 7.3289 10.7724 7.04515C10.7541 7.0009 10.6966 6.89778 10.6301 6.77853C10.2698 6.1324 9.52001 4.78778 10.0016 4.09915C10.2246 3.78053 10.6684 3.65515 11.3224 3.72515C11.13 3.13903 10.2138 1.3054 8.04001 1.26978C7.38614 1.25878 6.84989 1.4599 6.44701 1.86665C5.54489 2.77778 5.57764 4.42628 5.57801 4.44265C5.57856 4.46374 5.57495 4.48473 5.56739 4.50442C5.55983 4.52411 5.54847 4.54212 5.53395 4.55742C5.51943 4.57271 5.50203 4.585 5.48276 4.59358C5.46349 4.60216 5.44272 4.60685 5.42164 4.6074C5.40055 4.60795 5.37957 4.60435 5.35987 4.59679C5.34018 4.58922 5.32217 4.57786 5.30688 4.56334C5.29158 4.54882 5.27929 4.53143 5.27071 4.51216C5.26214 4.49289 5.25744 4.47212 5.25689 4.45103C5.25489 4.3779 5.22114 2.64803 6.21876 1.64053C6.68564 1.16903 7.30014 0.93628 8.04526 0.948405C9.43626 0.97128 10.3314 1.67828 10.8375 2.26753C11.389 2.90953 11.6595 3.61778 11.6818 3.85403C11.6984 4.02978 11.5723 4.06503 11.5468 4.07015L11.4889 4.07153C10.847 3.96878 10.4353 4.04003 10.265 4.2834C9.89864 4.8069 10.6079 6.07878 10.9108 6.62203C10.9881 6.76053 11.0439 6.86065 11.0694 6.92253C11.1689 7.16378 11.2986 7.3259 11.4029 7.45615C11.4945 7.57078 11.574 7.67003 11.6025 7.78678C11.6156 7.8099 11.8029 8.08665 12.9135 7.8574C13.1919 7.80003 13.3588 7.84915 13.4098 8.0034C13.5101 8.30703 12.947 8.66103 12.6353 8.8059C12.3555 8.93578 11.9096 9.0179 11.5238 9.0179ZM11.0511 8.61315C11.0863 8.64878 11.2625 8.71003 11.6276 8.6944C11.9521 8.6804 12.2945 8.60978 12.5 8.51453C12.7628 8.39253 12.938 8.25615 13.0289 8.16303L12.9784 8.17228C12.2683 8.3189 11.766 8.2994 11.4856 8.11415C11.4668 8.10169 11.4486 8.08821 11.4313 8.07378C11.4009 8.08578 11.3728 8.09365 11.3528 8.09928C11.1936 8.1439 11.0291 8.19003 11.0511 8.61315ZM6.46401 9.51053C6.28764 9.51053 6.10201 9.48665 5.91239 9.43903C5.71601 9.3899 5.38476 9.24203 5.38989 8.99915C5.39551 8.72653 5.79189 8.64478 5.94126 8.61403C6.48026 8.50303 6.51539 8.45853 6.68389 8.24465C6.73301 8.18228 6.79414 8.10465 6.87739 8.01153C7.00114 7.87315 7.13639 7.8029 7.27939 7.8029C7.37889 7.8029 7.46064 7.83678 7.51451 7.85903C7.68651 7.93028 7.83001 8.10253 7.88901 8.30878C7.94226 8.49478 7.91689 8.67378 7.81751 8.81278C7.49151 9.2694 7.02351 9.51053 6.46401 9.51053ZM5.73689 9.01303C5.78539 9.0504 5.88239 9.1004 5.99026 9.12753C6.15451 9.16853 6.31376 9.1894 6.46401 9.1894C6.92176 9.1894 7.28914 8.99978 7.55614 8.62615C7.61176 8.54815 7.59514 8.44928 7.58026 8.39715C7.54901 8.28815 7.47151 8.18903 7.39164 8.15578C7.34826 8.13778 7.31239 8.12403 7.27939 8.12403C7.26164 8.12403 7.20776 8.12403 7.11689 8.22565C7.04014 8.3114 6.98501 8.3814 6.93614 8.44328C6.72639 8.70965 6.63026 8.80003 6.00601 8.92865C5.85376 8.96015 5.77564 8.9919 5.73689 9.01303ZM6.97214 8.27203C6.93379 8.27197 6.89673 8.25821 6.86764 8.23322C6.83856 8.20824 6.81936 8.17368 6.81351 8.13578C6.8094 8.10911 6.80673 8.08224 6.80551 8.05528C6.39626 8.04753 6.00151 7.87203 5.70189 7.55928C5.32301 7.1639 5.15051 6.61615 5.22876 6.05653C5.31376 5.44878 5.28201 4.91228 5.26489 4.62403C5.26063 4.56474 5.25801 4.50534 5.25701 4.4459C5.25726 4.39515 5.25826 4.26028 5.70889 4.0319C5.86914 3.95065 6.19051 3.8089 6.54151 3.77253C7.12326 3.71253 7.50664 3.97153 7.62139 4.50203C7.93114 5.93453 7.64589 6.56815 7.43764 7.03078C7.39876 7.11678 7.36214 7.19828 7.33289 7.27703L7.30701 7.34665C7.19701 7.64165 7.10189 7.89653 7.13114 8.08703C7.13757 8.12914 7.12703 8.17208 7.10184 8.20644C7.07665 8.24079 7.03886 8.26375 6.99676 8.27028L6.97214 8.27203ZM5.57926 4.49028L5.58564 4.60503C5.60339 4.9044 5.63639 5.46165 5.54689 6.10115C5.48239 6.56265 5.62339 7.01328 5.93376 7.33715C6.17901 7.59315 6.50201 7.7344 6.83389 7.7344H6.84076C6.87801 7.57778 6.93964 7.41253 7.00601 7.2344L7.03176 7.16528C7.06489 7.07628 7.10364 6.99015 7.14464 6.89903C7.34514 6.45353 7.59464 5.89903 7.30726 4.5699C7.25026 4.30678 7.11226 4.1544 6.88539 4.10415C6.41939 4.00115 5.72501 4.35165 5.57926 4.49028ZM6.54876 4.42215C6.54076 4.4789 6.65289 4.63053 6.79889 4.65078C6.94476 4.67115 7.06964 4.55265 7.07751 4.4959C7.08539 4.43915 6.97339 4.37653 6.82726 4.35615C6.68139 4.33578 6.55651 4.36528 6.54876 4.42215ZM6.83251 4.70678L6.79151 4.7039C6.70089 4.69128 6.60926 4.63415 6.54664 4.55103C6.52464 4.5219 6.48864 4.46515 6.49576 4.41465C6.50601 4.34053 6.59626 4.29628 6.73739 4.29628C6.76914 4.29628 6.80164 4.29857 6.83489 4.30315C6.91189 4.3139 6.98351 4.33615 7.03639 4.36565C7.12801 4.4169 7.13476 4.4739 7.13064 4.50353C7.11926 4.58515 6.98901 4.70678 6.83251 4.70678ZM6.60201 4.43165C6.60664 4.46665 6.69326 4.58228 6.80626 4.5979L6.83239 4.59978C6.93664 4.59978 7.01464 4.51765 7.02376 4.49078C7.01414 4.47253 6.94714 4.4269 6.81989 4.4094C6.79251 4.40558 6.76491 4.40358 6.73726 4.4034C6.65576 4.40328 6.61214 4.42165 6.60201 4.43165ZM10.9921 4.30628C11 4.36315 10.8881 4.51478 10.742 4.53503C10.596 4.55528 10.4711 4.4369 10.4631 4.38003C10.4554 4.32328 10.5674 4.26065 10.7134 4.2404C10.8594 4.2199 10.9841 4.24965 10.9921 4.30628ZM10.7084 4.56403C10.5678 4.56403 10.4466 4.45465 10.4366 4.38378C10.4251 4.29865 10.5653 4.2339 10.7098 4.2139C10.7417 4.2094 10.7729 4.20715 10.8034 4.20715C10.928 4.20715 11.0105 4.24378 11.0188 4.30265C11.0241 4.3409 10.9949 4.39978 10.9444 4.45278C10.9111 4.48778 10.8411 4.5484 10.7459 4.56153L10.7084 4.56403ZM10.8033 4.26065C10.7753 4.26065 10.7465 4.2627 10.717 4.26678C10.5718 4.2869 10.4854 4.34528 10.4895 4.37653C10.4944 4.41078 10.587 4.51053 10.7083 4.51053L10.7381 4.5084C10.8174 4.49728 10.8769 4.44565 10.9053 4.41578C10.9498 4.3689 10.9675 4.3249 10.9654 4.30978C10.9628 4.29015 10.9093 4.26065 10.8033 4.26065ZM11.2025 7.56728C11.1734 7.56726 11.1449 7.55935 11.1199 7.54437C11.095 7.5294 11.0746 7.50793 11.0609 7.48226C11.0472 7.45659 11.0407 7.42769 11.0422 7.39863C11.0436 7.36957 11.0529 7.34145 11.0691 7.31728C11.4111 6.8064 11.3485 6.28528 11.288 5.78153C11.2621 5.56678 11.2355 5.3449 11.2425 5.13178C11.2495 4.91265 11.2773 4.7319 11.3043 4.5569C11.3361 4.34978 11.3663 4.1539 11.3538 3.92165C11.3528 3.87991 11.3682 3.83945 11.3966 3.80883C11.425 3.77822 11.4642 3.75984 11.5058 3.7576C11.5475 3.75536 11.5885 3.76943 11.62 3.79683C11.6515 3.82422 11.6711 3.86281 11.6746 3.9044C11.6889 4.1699 11.6548 4.3914 11.6218 4.60578C11.5963 4.77115 11.5699 4.94215 11.5635 5.14203C11.5574 5.33065 11.5815 5.53103 11.607 5.74303C11.6715 6.2789 11.7444 6.88628 11.3361 7.4959C11.3051 7.54215 11.2543 7.56728 11.2025 7.56728Z" fill="white"/>
<path d="M0.35437 12.898C0.533828 12.8688 0.715424 12.8546 0.897245 12.8558C1.17662 12.8558 1.3815 12.9208 1.5115 13.0378C1.63175 13.1418 1.70325 13.301 1.70325 13.4962C1.70325 13.6944 1.64462 13.8504 1.53412 13.9641C1.38462 14.1234 1.14087 14.2047 0.86462 14.2047C0.78012 14.2047 0.70212 14.2014 0.637245 14.1852V15.0628H0.35437V12.898ZM0.637245 13.9543C0.698995 13.9705 0.776995 13.977 0.871245 13.977C1.21237 13.977 1.4205 13.8113 1.4205 13.509C1.4205 13.2198 1.21575 13.08 0.903745 13.08C0.780245 13.08 0.685995 13.0898 0.637245 13.1028V13.9543ZM3.416 14.263C3.416 14.8448 3.01287 15.0984 2.63262 15.0984C2.20687 15.0984 1.87862 14.7864 1.87862 14.289C1.87862 13.7625 2.22312 13.4538 2.65862 13.4538C3.11049 13.4536 3.416 13.782 3.416 14.263ZM2.168 14.2793C2.168 14.6238 2.36625 14.8838 2.64575 14.8838C2.91875 14.8838 3.12337 14.627 3.12337 14.2728C3.12337 14.0063 2.99025 13.6683 2.65212 13.6683C2.314 13.6683 2.168 13.9803 2.168 14.2793ZM3.73762 14.77C3.82212 14.8253 3.97162 14.8838 4.11462 14.8838C4.32262 14.8838 4.42012 14.7798 4.42012 14.6498C4.42012 14.5133 4.339 14.4385 4.12762 14.3605C3.84487 14.2598 3.71162 14.1038 3.71162 13.9153C3.71162 13.6618 3.91637 13.4538 4.25437 13.4538C4.41362 13.4538 4.5535 13.4993 4.64125 13.5513L4.56975 13.7593C4.47301 13.6997 4.36161 13.6682 4.248 13.6683C4.079 13.6683 3.98475 13.7658 3.98475 13.8828C3.98475 14.0128 4.07912 14.0713 4.28387 14.1493C4.55687 14.2533 4.69662 14.3898 4.69662 14.6238C4.69662 14.9 4.48212 15.095 4.10837 15.095C3.93612 15.095 3.77687 15.0528 3.66637 14.9878L3.73762 14.77ZM5.40825 13.0377V13.4894H5.81762V13.7071H5.40825V14.5554C5.40825 14.7504 5.46337 14.8609 5.62275 14.8609C5.67862 14.8618 5.73437 14.8553 5.7885 14.8414L5.8015 15.0559C5.74637 15.0787 5.6585 15.0949 5.54812 15.0949C5.41487 15.0949 5.3075 15.0526 5.23925 14.9746C5.15812 14.8901 5.12875 14.7504 5.12875 14.5652V13.7071H4.885V13.4894H5.12875V13.1124L5.40825 13.0377ZM7.47524 13.4895C7.46862 13.6033 7.46225 13.73 7.46225 13.9218V14.835C7.46225 15.1958 7.39075 15.4168 7.238 15.5534C7.08525 15.6964 6.86425 15.7419 6.666 15.7419C6.4775 15.7419 6.2695 15.6964 6.14262 15.6119L6.21412 15.3942C6.31812 15.4592 6.48062 15.5177 6.67562 15.5177C6.96812 15.5177 7.18262 15.3649 7.18262 14.9684V14.7929H7.17612C7.08837 14.9392 6.91937 15.0561 6.67562 15.0561C6.28562 15.0561 6.00612 14.7246 6.00612 14.289C6.00612 13.756 6.35387 13.4538 6.71462 13.4538C6.98775 13.4538 7.13725 13.5968 7.2055 13.7268H7.212L7.225 13.4895H7.47524ZM7.1795 14.1103C7.1795 14.0615 7.17625 14.0193 7.16325 13.9803C7.11125 13.8145 6.9715 13.678 6.7635 13.678C6.49037 13.678 6.2955 13.9088 6.2955 14.2728C6.2955 14.5815 6.4515 14.8383 6.76025 14.8383C6.93575 14.8383 7.095 14.7278 7.15675 14.5458C7.173 14.497 7.17962 14.4418 7.17962 14.393L7.1795 14.1103ZM7.91712 13.9803C7.91712 13.795 7.91387 13.6358 7.90412 13.4895H8.1545L8.16412 13.7983H8.17712C8.24862 13.587 8.42087 13.4538 8.61262 13.4538C8.64512 13.4538 8.66775 13.457 8.69375 13.4635V13.7333C8.66177 13.7263 8.6291 13.723 8.59637 13.7235C8.39487 13.7235 8.25175 13.8763 8.21287 14.0908C8.20482 14.1348 8.20047 14.1793 8.19987 14.224V15.0625H7.91712V13.9803ZM9.10674 14.328C9.11324 14.7148 9.36012 14.874 9.64612 14.874C9.851 14.874 9.97437 14.8383 10.0816 14.7928L10.1304 14.9975C10.0296 15.043 9.85737 15.095 9.60712 15.095C9.12287 15.095 8.83362 14.7765 8.83362 14.302C8.83362 13.8275 9.11312 13.4536 9.57137 13.4536C10.0849 13.4536 10.2214 13.9054 10.2214 14.1947C10.2214 14.2532 10.2149 14.2987 10.2116 14.3279L9.10674 14.328ZM9.94524 14.1233C9.94837 13.9413 9.87037 13.6585 9.54875 13.6585C9.2595 13.6585 9.13274 13.925 9.10987 14.1233H9.94524Z" fill="black"/>
<path d="M10.5464 14.718C10.6996 14.8101 10.8746 14.8595 11.0534 14.861C11.3426 14.861 11.5116 14.7082 11.5116 14.4872C11.5116 14.2825 11.3946 14.1655 11.0989 14.0517C10.7414 13.925 10.5204 13.7397 10.5204 13.431C10.5204 13.0897 10.8031 12.8362 11.2289 12.8362C11.4531 12.8362 11.6156 12.8882 11.7131 12.9435L11.6351 13.1742C11.5072 13.1056 11.3643 13.0699 11.2191 13.0702C10.9201 13.0702 10.8064 13.249 10.8064 13.3985C10.8064 13.6032 10.9395 13.704 11.2419 13.821C11.6124 13.9641 11.8009 14.1427 11.8009 14.4645C11.8009 14.8025 11.5506 15.095 11.0339 15.095C10.8226 15.095 10.5919 15.0332 10.4748 14.9552L10.5464 14.718ZM13.9946 15.3842C13.7121 15.3101 13.4324 15.2255 13.1561 15.1307C13.1106 15.1145 13.0651 15.0982 13.0229 15.0982C12.5029 15.0787 12.0576 14.6952 12.0576 13.99C12.0576 13.288 12.4866 12.8362 13.0781 12.8362C13.6729 12.8362 14.0598 13.2977 14.0598 13.9445C14.0598 14.5067 13.7998 14.8675 13.4358 14.9942V15.0072C13.6535 15.0625 13.8908 15.1145 14.076 15.147L13.9946 15.3842ZM13.7606 13.9575C13.7606 13.5187 13.5333 13.0669 13.0684 13.0669C12.5906 13.0669 12.3566 13.5089 12.3599 13.9835C12.3566 14.4482 12.6134 14.8675 13.0554 14.8675C13.5073 14.8675 13.7606 14.458 13.7606 13.9575ZM14.4268 12.872H14.7096V14.8252H15.6456V15.0625H14.4268V12.872Z" fill="#336791"/>
</g>
<defs>
<clipPath id="clip0_55_2">
<rect width="16" height="16" fill="white"/>
</clipPath>
</defs>
</svg>
